<svg style="display: none;"><symbol viewBox="-11 13 17 15" id="shape-next"><title>Arrow</title><desc>Created with Sketch.</desc>   <g id="svgstored4e58de3598767718a2877b272a5b761Welcome" sketch:type="MSPage"> <g id="svgstored4e58de3598767718a2877b272a5b761HDTV" transform="translate(-1882.000000, -123.000000)" sketch:type="MSArtboardGroup"> <g id="svgstored4e58de3598767718a2877b272a5b761Next-Track" transform="translate(1743.763516, 121.752730)" sketch:type="MSLayerGroup"> <path id="svgstored4e58de3598767718a2877b272a5b761Arrow" sketch:type="MSShapeGroup" d="M136.4,29.1c-0.5,0.3-1-0.1-1-0.6V25c0-0.6-0.7-0.9-1.1-0.5l-5.6,4.6
				c-0.5,0.3-1-0.1-1-0.6V15.8c0-0.5,0.6-0.9,1-0.6l5.6,4.6c0.4,0.4,1.1,0,1.1-0.5v-3.5c0-0.5,0.6-0.9,1-0.6l7.4,6.1
				c0.6,0.5,0.6,1.3,0,1.8L136.4,29.1z"/> </g> </g> </g> </symbol><symbol viewBox="0 0 20 23" id="shape-play"><title>Play</title><desc>Created with Sketch.</desc> <!-- Generator: Sketch 3.3.3 (12081) - http://www.bohemiancoding.com/sketch -->    <g id="svgstoreefdff4faf26fd8d2ecd6e4b00ceca35cWelcome" stroke="none" stroke-width="1" fill="none" fill-rule="evenodd" sketch:type="MSPage"> <g id="svgstoreefdff4faf26fd8d2ecd6e4b00ceca35cHDTV" sketch:type="MSArtboardGroup" transform="translate(-848.000000, -354.000000)" fill="#FFFFFF"> <g id="svgstoreefdff4faf26fd8d2ecd6e4b00ceca35cTrack-name" sketch:type="MSLayerGroup" transform="translate(495.000000, 100.578342)"> <g id="svgstoreefdff4faf26fd8d2ecd6e4b00ceca35cPlay-+-PLAYING" transform="translate(353.034131, 254.092654)" sketch:type="MSShapeGroup"> <path d="M1.65638264,0.148885159 L18.2304231,9.62366747 C19.3556738,10.2675201 19.3556738,11.8580191 18.2304231,12.5018718 L1.65638264,21.9766541 C0.922671523,22.3975706 0,21.8801594 0,21.0483084 L0,1.07723082 C0,0.245379869 0.922671523,-0.270367719 1.65638264,0.148885159" id="svgstoreefdff4faf26fd8d2ecd6e4b00ceca35cPlay"/> </g> </g> </g> </g> </symbol><symbol viewBox="-10 13 18 15" id="shape-prev"><title>Arrow</title><desc>Created with Sketch.</desc>   <g id="svgstore2074fb6741136f1026efae1e5bc1e24fWelcome" sketch:type="MSPage"> <g id="svgstore2074fb6741136f1026efae1e5bc1e24fHDTV" transform="translate(-20.000000, -122.000000)" sketch:type="MSArtboardGroup"> <g id="svgstore2074fb6741136f1026efae1e5bc1e24fPrevious-Track" transform="translate(20.538332, 121.752730)" sketch:type="MSLayerGroup"> <path id="svgstore2074fb6741136f1026efae1e5bc1e24fArrow" sketch:type="MSShapeGroup" d="M-2.2,28c0.5,0.3,1-0.1,1-0.6V24c0-0.6,0.7-0.9,1.1-0.5L5.6,28
				c0.5,0.3,1-0.1,1-0.6V14.7c0-0.5-0.6-0.9-1-0.6L0,18.8c-0.4,0.4-1.1,0-1.1-0.5v-3.5c0-0.5-0.6-0.9-1-0.6l-7.4,6.1
				c-0.6,0.5-0.6,1.3,0,1.8L-2.2,28z"/> </g> </g> </g> </symbol></svg>