<?xml version="1.0" encoding="utf-8"?>
<!-- Generator: Adobe Illustrator 19.0.1, SVG Export Plug-In . SVG Version: 6.00 Build 0)  -->
<svg version="1.1" id="Layer_1" xmlns:sketch="http://www.bohemiancoding.com/sketch/ns"
	 xmlns="http://www.w3.org/2000/svg" xmlns:xlink="http://www.w3.org/1999/xlink" x="0px" y="0px" viewBox="-11 13 17 15"
	 style="enable-background:new -11 13 17 15;" xml:space="preserve">
<title>Arrow</title>
<desc>Created with Sketch.</desc>
<g id="Welcome" sketch:type="MSPage">
	<g id="HDTV" transform="translate(-1882.000000, -123.000000)" sketch:type="MSArtboardGroup">
		<g id="Next-Track" transform="translate(1743.763516, 121.752730)" sketch:type="MSLayerGroup">
			<path id="Arrow" sketch:type="MSShapeGroup" d="M136.4,29.1c-0.5,0.3-1-0.1-1-0.6V25c0-0.6-0.7-0.9-1.1-0.5l-5.6,4.6
				c-0.5,0.3-1-0.1-1-0.6V15.8c0-0.5,0.6-0.9,1-0.6l5.6,4.6c0.4,0.4,1.1,0,1.1-0.5v-3.5c0-0.5,0.6-0.9,1-0.6l7.4,6.1
				c0.6,0.5,0.6,1.3,0,1.8L136.4,29.1z"/>
		</g>
	</g>
</g>
</svg>
