<?xml version="1.0" encoding="utf-8"?>
<!-- Generator: Adobe Illustrator 19.0.1, SVG Export Plug-In . SVG Version: 6.00 Build 0)  -->
<svg version="1.1" id="Layer_1" xmlns:sketch="http://www.bohemiancoding.com/sketch/ns"
	 xmlns="http://www.w3.org/2000/svg" xmlns:xlink="http://www.w3.org/1999/xlink" x="0px" y="0px" viewBox="-10 13 18 15"
	 style="enable-background:new -10 13 18 15;" xml:space="preserve">
<title>Arrow</title>
<desc>Created with Sketch.</desc>
<g id="Welcome" sketch:type="MSPage">
	<g id="HDTV" transform="translate(-20.000000, -122.000000)" sketch:type="MSArtboardGroup">
		<g id="Previous-Track" transform="translate(20.538332, 121.752730)" sketch:type="MSLayerGroup">
			<path id="Arrow" sketch:type="MSShapeGroup" d="M-2.2,28c0.5,0.3,1-0.1,1-0.6V24c0-0.6,0.7-0.9,1.1-0.5L5.6,28
				c0.5,0.3,1-0.1,1-0.6V14.7c0-0.5-0.6-0.9-1-0.6L0,18.8c-0.4,0.4-1.1,0-1.1-0.5v-3.5c0-0.5-0.6-0.9-1-0.6l-7.4,6.1
				c-0.6,0.5-0.6,1.3,0,1.8L-2.2,28z"/>
		</g>
	</g>
</g>
</svg>
